<svg id="visual" viewBox="0 0 900 600" width="900" height="600" xmlns="http://www.w3.org/2000/svg" xmlns:xlink="http://www.w3.org/1999/xlink" version="1.1"><rect x="0" y="0" width="900" height="600" fill="#001220"></rect><path d="M0 456L10 449.5C20 443 40 430 60 421.3C80 412.7 100 408.3 120 413.7C140 419 160 434 180 436.2C200 438.3 220 427.7 240 420.5C260 413.3 280 409.7 300 409.7C320 409.7 340 413.3 360 420.8C380 428.3 400 439.7 420 437C440 434.3 460 417.7 480 412C500 406.3 520 411.7 540 420.5C560 429.3 580 441.7 600 438.7C620 435.7 640 417.3 660 408.5C680 399.7 700 400.3 720 402.7C740 405 760 409 780 410.2C800 411.3 820 409.7 840 412.5C860 415.3 880 422.7 890 426.3L900 430L900 601L890 601C880 601 860 601 840 601C820 601 800 601 780 601C760 601 740 601 720 601C700 601 680 601 660 601C640 601 620 601 600 601C580 601 560 601 540 601C520 601 500 601 480 601C460 601 440 601 420 601C400 601 380 601 360 601C340 601 320 601 300 601C280 601 260 601 240 601C220 601 200 601 180 601C160 601 140 601 120 601C100 601 80 601 60 601C40 601 20 601 10 601L0 601Z" fill="#ffe77b"></path><path d="M0 439L10 441.5C20 444 40 449 60 452.5C80 456 100 458 120 457C140 456 160 452 180 447.2C200 442.3 220 436.7 240 440.3C260 444 280 457 300 459.7C320 462.3 340 454.7 360 447.7C380 440.7 400 434.3 420 439C440 443.7 460 459.3 480 466.3C500 473.3 520 471.7 540 466.3C560 461 580 452 600 445.3C620 438.7 640 434.3 660 436.2C680 438 700 446 720 444.7C740 443.3 760 432.7 780 433.8C800 435 820 448 840 447.8C860 447.7 880 434.3 890 427.7L900 421L900 601L890 601C880 601 860 601 840 601C820 601 800 601 780 601C760 601 740 601 720 601C700 601 680 601 660 601C640 601 620 601 600 601C580 601 560 601 540 601C520 601 500 601 480 601C460 601 440 601 420 601C400 601 380 601 360 601C340 601 320 601 300 601C280 601 260 601 240 601C220 601 200 601 180 601C160 601 140 601 120 601C100 601 80 601 60 601C40 601 20 601 10 601L0 601Z" fill="#ffd46f"></path><path d="M0 472L10 471.7C20 471.3 40 470.7 60 468.8C80 467 100 464 120 460.3C140 456.7 160 452.3 180 457.8C200 463.3 220 478.7 240 479.5C260 480.3 280 466.7 300 465.3C320 464 340 475 360 479.8C380 484.7 400 483.3 420 479.3C440 475.3 460 468.7 480 463C500 457.3 520 452.7 540 453.3C560 454 580 460 600 467.3C620 474.7 640 483.3 660 486.7C680 490 700 488 720 481.7C740 475.3 760 464.7 780 460.3C800 456 820 458 840 459.3C860 460.7 880 461.3 890 461.7L900 462L900 601L890 601C880 601 860 601 840 601C820 601 800 601 780 601C760 601 740 601 720 601C700 601 680 601 660 601C640 601 620 601 600 601C580 601 560 601 540 601C520 601 500 601 480 601C460 601 440 601 420 601C400 601 380 601 360 601C340 601 320 601 300 601C280 601 260 601 240 601C220 601 200 601 180 601C160 601 140 601 120 601C100 601 80 601 60 601C40 601 20 601 10 601L0 601Z" fill="#ffc066"></path><path d="M0 500L10 497.5C20 495 40 490 60 488.7C80 487.3 100 489.7 120 492.5C140 495.3 160 498.7 180 501.3C200 504 220 506 240 504C260 502 280 496 300 496.5C320 497 340 504 360 506.5C380 509 400 507 420 508.2C440 509.3 460 513.7 480 515.3C500 517 520 516 540 510.2C560 504.3 580 493.7 600 490.8C620 488 640 493 660 499C680 505 700 512 720 514.5C740 517 760 515 780 508.5C800 502 820 491 840 485.5C860 480 880 480 890 480L900 480L900 601L890 601C880 601 860 601 840 601C820 601 800 601 780 601C760 601 740 601 720 601C700 601 680 601 660 601C640 601 620 601 600 601C580 601 560 601 540 601C520 601 500 601 480 601C460 601 440 601 420 601C400 601 380 601 360 601C340 601 320 601 300 601C280 601 260 601 240 601C220 601 200 601 180 601C160 601 140 601 120 601C100 601 80 601 60 601C40 601 20 601 10 601L0 601Z" fill="#ffad61"></path><path d="M0 541L10 540.7C20 540.3 40 539.7 60 537.2C80 534.7 100 530.3 120 525.8C140 521.3 160 516.7 180 513.2C200 509.7 220 507.3 240 505.7C260 504 280 503 300 502.3C320 501.7 340 501.3 360 506.5C380 511.7 400 522.3 420 529C440 535.7 460 538.3 480 537.8C500 537.3 520 533.7 540 532.3C560 531 580 532 600 534C620 536 640 539 660 540C680 541 700 540 720 539.2C740 538.3 760 537.7 780 535.2C800 532.7 820 528.3 840 522.2C860 516 880 508 890 504L900 500L900 601L890 601C880 601 860 601 840 601C820 601 800 601 780 601C760 601 740 601 720 601C700 601 680 601 660 601C640 601 620 601 600 601C580 601 560 601 540 601C520 601 500 601 480 601C460 601 440 601 420 601C400 601 380 601 360 601C340 601 320 601 300 601C280 601 260 601 240 601C220 601 200 601 180 601C160 601 140 601 120 601C100 601 80 601 60 601C40 601 20 601 10 601L0 601Z" fill="#ff9960"></path><path d="M0 558L10 558C20 558 40 558 60 558.3C80 558.7 100 559.3 120 557.8C140 556.3 160 552.7 180 549.7C200 546.7 220 544.3 240 540.7C260 537 280 532 300 534.3C320 536.7 340 546.3 360 551C380 555.7 400 555.3 420 550.7C440 546 460 537 480 533.2C500 529.3 520 530.7 540 532.5C560 534.3 580 536.7 600 536.3C620 536 640 533 660 531.5C680 530 700 530 720 532.3C740 534.7 760 539.3 780 541.5C800 543.7 820 543.3 840 543C860 542.7 880 542.3 890 542.2L900 542L900 601L890 601C880 601 860 601 840 601C820 601 800 601 780 601C760 601 740 601 720 601C700 601 680 601 660 601C640 601 620 601 600 601C580 601 560 601 540 601C520 601 500 601 480 601C460 601 440 601 420 601C400 601 380 601 360 601C340 601 320 601 300 601C280 601 260 601 240 601C220 601 200 601 180 601C160 601 140 601 120 601C100 601 80 601 60 601C40 601 20 601 10 601L0 601Z" fill="#fe8662"></path><path d="M0 573L10 574.2C20 575.3 40 577.7 60 579C80 580.3 100 580.7 120 576.8C140 573 160 565 180 564C200 563 220 569 240 573.2C260 577.3 280 579.7 300 578.3C320 577 340 572 360 567.3C380 562.7 400 558.3 420 559.5C440 560.7 460 567.3 480 571.2C500 575 520 576 540 576.7C560 577.3 580 577.7 600 574.3C620 571 640 564 660 563.7C680 563.3 700 569.7 720 573.5C740 577.3 760 578.7 780 577.5C800 576.3 820 572.7 840 572C860 571.3 880 573.7 890 574.8L900 576L900 601L890 601C880 601 860 601 840 601C820 601 800 601 780 601C760 601 740 601 720 601C700 601 680 601 660 601C640 601 620 601 600 601C580 601 560 601 540 601C520 601 500 601 480 601C460 601 440 601 420 601C400 601 380 601 360 601C340 601 320 601 300 601C280 601 260 601 240 601C220 601 200 601 180 601C160 601 140 601 120 601C100 601 80 601 60 601C40 601 20 601 10 601L0 601Z" fill="#fa7268"></path></svg>